<svg width="132" height="21" fill="none" xmlns="http://www.w3.org/2000/svg"><path d="M122 14.164l3.539 1.98-.791-3.977 2.978-2.754-4.028-.478L122 5.253v8.91zm0 1.91l-5.878 3.29 1.313-6.607-4.946-4.573 6.689-.794L122 1.274l2.822 6.116 6.689.794-4.946 4.573 1.312 6.607-5.877-3.29zm-112 0l-5.878 3.29 1.313-6.607L.489 8.184l6.69-.794L10 1.274l2.822 6.116 6.689.794-4.946 4.573 1.313 6.607L10 16.074zm28 0l-5.877 3.29 1.312-6.607-4.946-4.573 6.69-.794L38 1.274l2.822 6.116 6.689.794-4.946 4.573 1.313 6.607L38 16.074zm28 0l-5.877 3.29 1.312-6.607-4.946-4.573 6.69-.794L66 1.274l2.822 6.116 6.689.794-4.946 4.573 1.313 6.607L66 16.074zm28 0l-5.877 3.29 1.312-6.607-4.946-4.573 6.69-.794L94 1.274l2.822 6.116 6.689.794-4.946 4.573 1.313 6.607L94 16.074z" fill="#F1B90B"/></svg>