<svg width="500" height="500" fill="none" xmlns="http://www.w3.org/2000/svg"><g clip-path="url(#clip0_5_46)"><path d="M489.258 250c0 132.139-107.119 239.258-239.258 239.258S10.742 382.139 10.742 250 117.861 10.742 250 10.742 489.258 117.861 489.258 250z" fill="#1D79E4" fill-opacity=".3"/><path d="M499.94 249.404c0 .001 0 .001 0 0-.704 8.053-7.329 14.422-20.203 19.381-3.474 1.338-7.396-.21-9.056-3.542l-.086-.173c-1.918-3.838-.064-8.468 3.946-9.996 8.113-3.091 10.708-5.827 10.806-6.947.213-2.435-9.86-14.431-63.027-28.639-44.727-11.952-104.828-21.637-169.229-27.271-37.912-3.318-74.602-4.992-107.777-4.992-23.18 0-44.646.817-63.617 2.464-54.827 4.761-66.83 14.826-67.042 17.261-.065.747.838 2.396 3.66 4.732 5.266 4.362 2.189 12.927-4.652 12.927-1.69 0-3.345-.572-4.638-1.659-6.546-5.494-9.495-11.206-8.963-17.276.797-9.112 9.173-16.069 25.607-21.266 13.176-4.167 31.6-7.3 54.76-9.31 46.946-4.077 108.718-3.178 173.939 2.527 65.223 5.706 126.212 15.548 171.735 27.714 22.459 6.002 40.059 12.286 52.312 18.678 15.28 7.971 22.321 16.276 21.525 25.387z" fill="#7EB7F9"/><path d="M399.867 239.371l-65.121 170.941c-5.484 14.398-22.922 19.972-35.74 11.425a23.998 23.998 0 01-10.502-16.992l-6.219-49.754s-.771-25.153-10.817-44.486c-9.119-17.549-34.17-17.73-42.933 0-8.148 16.486-10.639 43.059-10.639 43.059l-6.398 51.181a23.998 23.998 0 01-10.502 16.992c-12.819 8.546-30.256 2.972-35.74-11.425L100.135 239.37a136.673 136.673 0 01-4.873-81.808l12.902-51.609c6.025-24.097 30.241-38.93 54.445-33.344l24.203 5.585c9.364 2.162 19.143 1.188 27.992-2.561 22.893-9.7 47.503-9.7 70.396 0 8.85 3.749 18.628 4.723 27.992 2.561l24.203-5.585c24.203-5.585 48.42 9.247 54.445 33.344l12.902 51.609a136.711 136.711 0 01-4.875 81.809z" fill="#ECECF1"/><path d="M204.622 410.312a24.204 24.204 0 002.737 5.197 23.968 23.968 0 01-6.364 6.228c-12.819 8.546-30.256 2.972-35.74-11.425L100.134 239.37a136.676 136.676 0 01-4.873-81.809l12.902-51.608c6.025-24.098 30.241-38.93 54.445-33.344l11.079 2.557c-12.591 5.441-22.579 16.481-26.156 30.787l-12.902 51.608a136.695 136.695 0 004.873 81.809l65.12 170.942zm114.255-5.566l-6.219-49.754s-.771-25.153-10.817-44.486c-6.011-11.567-34.791-16.535-51.607-13.226 8.376.148 16.74 4.577 21.233 13.226 10.047 19.333 10.817 44.486 10.817 44.486l6.219 49.754a23.998 23.998 0 0010.502 16.992c9.16 6.107 20.678 5.003 28.507-1.377l.002-.001a24.006 24.006 0 01-8.637-15.614z" fill="#D3D3D8"/><path d="M324.796 241.755c-13.895-12.469-.299-32.538-5.448-70.485-3.453-25.438-11.7-32.498-5.79-42.998 7.076-12.573 28.357-18.584 42.523-12.149 27.096 12.308 19.757 65.459 18.983 70.619-3.923 26.186-19.378 60.281-37.739 60.328-6.456.017-11.265-4.18-12.529-5.315z" fill="#FFF5F5"/><path d="M224.609 185.547a7.324 7.324 0 01-7.324 7.324h-4.883v4.883a7.324 7.324 0 11-14.648 0v-4.883h-4.883a7.324 7.324 0 110-14.648h4.883v-4.883a7.324 7.324 0 1114.648 0v4.883h4.883a7.324 7.324 0 017.324 7.324zm-19.531 56.34v33.803c0 6.223-5.045 11.268-11.267 11.268h-33.804v33.804c0 6.222-5.045 11.267-11.268 11.267h-33.803c-6.223 0-11.268-5.045-11.268-11.267v-33.804H69.861c-6.222 0-11.267-5.045-11.267-11.268v-33.803c0-6.224 5.045-11.269 11.267-11.269h33.804v-33.804c0-6.223 5.045-11.267 11.268-11.267h33.803c6.223 0 11.268 5.045 11.268 11.267v33.804h33.804c6.225.001 11.27 5.046 11.27 11.269zm294.861 7.518c-.797 9.112-9.173 16.068-25.607 21.265-13.176 4.167-31.601 7.3-54.761 9.31-19.366 1.682-41.261 2.517-64.877 2.517-33.628 0-70.746-1.692-109.061-5.045a1411.019 1411.019 0 01-24.246-2.331c-3.724-.391-6.542-3.541-6.542-7.284 0-4.344 3.756-7.735 8.076-7.282 7.914.83 15.918 1.599 23.989 2.305 64.402 5.635 125.27 6.532 171.395 2.528 54.827-4.761 66.83-14.825 67.042-17.261a7.321 7.321 0 017.934-6.657 7.324 7.324 0 016.658 7.935zM44.103 224.981c-24.172-9.244-29.607-16.236-29.45-18.031a7.324 7.324 0 00-14.592-1.277c-.797 9.111 6.244 17.416 21.525 25.389 4.925 2.569 10.713 5.121 17.334 7.643 4.783 1.822 9.911-1.735 9.911-6.853v-.024a7.339 7.339 0 00-4.728-6.847z" fill="#1D79E4"/><path d="M205.078 241.887v33.803c0 6.223-5.045 11.268-11.267 11.268h-33.804v33.804c0 6.222-5.045 11.267-11.268 11.267h-16.903V185.547h16.902c6.223 0 11.268 5.045 11.268 11.267v33.804h33.804c6.223.001 11.268 5.046 11.268 11.269zm0-114.934a7.324 7.324 0 01-7.324 7.324h-4.883v4.883a7.324 7.324 0 11-14.648 0v-4.883h-4.883a7.324 7.324 0 110-14.648h4.883v-4.883a7.324 7.324 0 1114.648 0v4.883h4.883a7.324 7.324 0 017.324 7.324z" fill="#7EB7F9"/></g><defs><clipPath id="clip0_5_46"><path fill="#fff" d="M0 0h500v500H0z"/></clipPath></defs></svg>