<svg width="41" height="40" fill="none" xmlns="http://www.w3.org/2000/svg"><circle cx="20.808" cy="20" r="19.5" stroke="#1D79E4" stroke-opacity=".35"/><g clip-path="url(#clip0_5_85)" fill="#1D79E4"><path d="M30.789 15.88c-.047-1.063-.219-1.793-.465-2.426a4.88 4.88 0 00-1.157-1.774 4.922 4.922 0 00-1.77-1.153c-.636-.246-1.363-.418-2.426-.464-1.07-.051-1.41-.063-4.125-.063-2.716 0-3.056.012-4.122.059-1.063.046-1.794.219-2.427.465a4.879 4.879 0 00-1.774 1.156 4.923 4.923 0 00-1.152 1.77c-.246.637-.418 1.363-.465 2.426-.05 1.07-.063 1.41-.063 4.126 0 2.715.012 3.055.06 4.122.046 1.063.218 1.793.464 2.426a4.933 4.933 0 001.156 1.774 4.92 4.92 0 001.77 1.152c.637.247 1.364.419 2.427.465 1.066.047 1.406.059 4.122.059 2.715 0 3.055-.012 4.122-.059 1.062-.046 1.793-.218 2.426-.464a5.116 5.116 0 002.926-2.927c.246-.637.418-1.364.465-2.426.047-1.067.059-1.407.059-4.122s-.004-3.055-.051-4.122zm-1.801 8.166c-.043.977-.207 1.504-.344 1.855a3.318 3.318 0 01-1.899 1.9c-.352.136-.883.3-1.856.343-1.055.047-1.371.059-4.04.059-2.668 0-2.988-.012-4.04-.059-.976-.043-1.504-.207-1.855-.344a3.076 3.076 0 01-1.149-.746 3.109 3.109 0 01-.746-1.148c-.137-.352-.301-.883-.344-1.856-.047-1.055-.059-1.372-.059-4.04 0-2.669.012-2.99.06-4.04.042-.977.206-1.504.343-1.856a3.04 3.04 0 01.75-1.149 3.105 3.105 0 011.149-.746c.351-.136.883-.3 1.855-.344 1.055-.046 1.372-.058 4.04-.058 2.673 0 2.99.011 4.04.058.977.043 1.504.207 1.856.344.434.16.828.414 1.149.746.332.325.586.715.746 1.15.137.35.3.882.344 1.855.047 1.055.058 1.371.058 4.04 0 2.668-.011 2.98-.058 4.036z"/><path d="M20.846 14.864a5.139 5.139 0 00-5.138 5.138 5.139 5.139 0 105.138-5.138zm0 8.47a3.333 3.333 0 110-6.666 3.333 3.333 0 010 6.667zm6.54-8.673a1.2 1.2 0 11-2.399 0 1.2 1.2 0 012.399 0z"/></g><defs><clipPath id="clip0_5_85"><path fill="#fff" transform="translate(10.808 10)" d="M0 0h20v20H0z"/></clipPath></defs></svg>