<svg width="41" height="40" fill="none" xmlns="http://www.w3.org/2000/svg"><circle cx="20.404" cy="20" r="19.5" stroke="#1D79E4" stroke-opacity=".35"/><g clip-path="url(#clip0_5_79)"><path d="M30.404 13.799a8.551 8.551 0 01-2.362.647 4.077 4.077 0 001.803-2.266 8.193 8.193 0 01-2.6.992 4.099 4.099 0 00-7.093 2.804c0 .325.028.638.096.935-3.409-.166-6.425-1.8-8.451-4.289a4.128 4.128 0 00-.562 2.073c0 1.42.732 2.679 1.822 3.407a4.048 4.048 0 01-1.853-.505v.045a4.119 4.119 0 003.285 4.03 4.09 4.09 0 01-1.075.134 3.62 3.62 0 01-.776-.07c.531 1.624 2.039 2.818 3.831 2.857a8.238 8.238 0 01-5.084 1.748 7.67 7.67 0 01-.98-.056 11.542 11.542 0 006.29 1.84c7.544 0 11.67-6.25 11.67-11.668 0-.18-.007-.356-.016-.53a8.18 8.18 0 002.055-2.128z" fill="#1D79E4"/></g><defs><clipPath id="clip0_5_79"><path fill="#fff" transform="translate(10.404 10)" d="M0 0h20v20H0z"/></clipPath></defs></svg>